<?xml version="1.0" standalone="no"?>
<!DOCTYPE svg PUBLIC "-//W3C//DTD SVG 20010904//EN"
 "http://www.w3.org/TR/2001/REC-SVG-20010904/DTD/svg10.dtd">
<svg version="1.0" xmlns="http://www.w3.org/2000/svg"
 width="512.000000pt" height="512.000000pt" viewBox="0 0 512.000000 512.000000"
 preserveAspectRatio="xMidYMid meet">

<g transform="translate(0.000000,512.000000) scale(0.100000,-0.100000)"
fill="#000000" stroke="none">
<path d="M2390 4314 c-14 -2 -59 -9 -100 -15 -143 -20 -379 -89 -419 -122 -10
-9 -12 -40 -9 -142 5 -144 28 -227 91 -335 41 -70 176 -205 247 -247 214 -126
506 -126 720 0 71 42 206 177 247 247 63 108 86 191 91 335 3 102 1 133 -9
142 -36 30 -232 89 -394 120 -76 14 -411 27 -465 17z"/>
<path d="M1110 3263 c-76 -6 -169 -25 -178 -36 -14 -19 -60 -154 -81 -242 -39
-160 -46 -228 -46 -425 0 -197 7 -265 46 -425 21 -86 67 -223 81 -241 24 -31
262 -47 363 -24 202 46 382 182 474 360 195 373 27 831 -360 984 -96 37 -210
56 -299 49z"/>
<path d="M3888 3259 c-351 -39 -618 -341 -618 -699 0 -333 228 -616 555 -690
101 -23 339 -7 363 24 14 18 60 155 81 241 39 160 46 228 46 425 0 197 -7 265
-46 425 -21 87 -67 223 -81 241 -19 25 -199 44 -300 33z"/>
<path d="M2485 2716 c-42 -18 -83 -69 -91 -112 -15 -79 9 -143 70 -188 39 -30
153 -30 192 0 55 41 69 70 69 144 0 74 -14 103 -68 144 -34 25 -129 32 -172
12z"/>
<path d="M2382 1830 c-253 -66 -453 -276 -512 -535 -23 -101 -7 -339 24 -363
33 -26 244 -87 396 -114 100 -17 440 -17 540 0 152 27 363 88 396 114 31 24
47 262 24 363 -59 261 -261 470 -516 535 -102 26 -252 26 -352 0z"/>
</g>
</svg>
